# xmcd CD database file generated by OrangeCD 6.1
#
# Track frame offsets:
#	150
#	18443
#	29347
#	39793
#	55505
#	72752
#	86826
#	98780
#	115071
#	125123
#
# Disc length: 1857 seconds
#
# Revision: 2
# Processed by: cddbd v1.5.2PL0 Copyright (c) Steve Scherf et al.
# Submitted via: OrangeCD 6.1
#
DISCID=79073f0a
DTITLE=The Narcotics - All The Purple Pussies
DYEAR=2008
DGENRE=
TTITLE0=All The Purple Pussies
TTITLE1=Fuckin' Shootin' Star
TTITLE2=Stuck In The Station
TTITLE3=Troubles (Give Me A Hard On)
TTITLE4=Vanishing
TTITLE5=(My) Death Party
TTITLE6=Jenny
TTITLE7=Narcotic Mess-A-Round
TTITLE8=Take Me To The Streets
TTITLE9=Love Has No Time
EXTD=
EXTT0=
EXTT1=
EXTT2=
EXTT3=
EXTT4=
EXTT5=
EXTT6=
EXTT7=
EXTT8=
EXTT9=
PLAYORDER=
